            <svg width="180" height="60" xmlns="http://www.w3.org/2000/svg" id="logo-sistema-svg" viewBox="0 10 180 50">
                <text id="logo-sistema-hu"
                      text-anchor="middle"  x="42" y="47">hu</text>
                <ellipse  cx="61.26871" cy="8.73414" ry="4.95" rx="4.94" id="logo-sistema-circulo"/>
                <path id="logo-sistema-arco" d="m53.52871,16.83417c-3.24,1.21002 -6.4,2.89001 -8.84,5.38c-0.85,0.97998 0.48,2.26001 1.26,1.06c2.7,-2.03998 5.8,-3.75 9.25,-3.90002c5.98,-0.45996 12.27,2.48004 15.25,7.79004c1.95,3.21002 1.84,7.22003 0.66,10.67999c-0.44,1.82996 -1.58,3.45996 -1.84,5.30994c0.7,1.55005 1.92001,-0.70996 2.36001,-1.38c1.91,-2.88989 3.46999,-6.07996 3.95,-9.53992c0.79,-4.73004 -0.6,-10.07001 -4.52,-13.09002c-4.28001,-3.64001 -10.4,-4.10999 -15.68,-2.82001c-0.63,0.15002 -1.25,0.32001 -1.86,0.52002l0.01,-0.01001z" />
                <text id="logo-sistema-nome" x="80" y="47">Relator</text>
            </svg>