<?xml version="1.0" encoding="UTF-8"?>
<!DOCTYPE svg PUBLIC "-//W3C//DTD SVG 1.1//EN" "http://www.w3.org/Graphics/SVG/1.1/DTD/svg11.dtd">
<!-- Creator: CorelDRAW 2017 -->
<svg xmlns="http://www.w3.org/2000/svg" xml:space="preserve" width="512px" height="512px" version="1.1" style="shape-rendering:geometricPrecision; text-rendering:geometricPrecision; image-rendering:optimizeQuality; fill-rule:evenodd; clip-rule:evenodd"
viewBox="0 0 198.87 198.87"
 xmlns:xlink="http://www.w3.org/1999/xlink">
 <defs>
  <style type="text/css">
   <![CDATA[
    .str0 {stroke:#FEFEFE;stroke-width:1.05;stroke-miterlimit:22.9256}
    .fil1 {fill:#03814A}
    .fil0 {fill:#263238}
    .fil2 {fill:#D9251D}
    .fil3 {fill:#FEFEFE;fill-rule:nonzero}
   ]]>
  </style>
 </defs>
 <g id="Layer_x0020_1">
  <metadata id="CorelCorpID_0Corel-Layer"/>
  <g id="_1491790513120">
   <circle class="fil0" cx="99.44" cy="99.44" r="99.44"/>
   <g>
    <path class="fil1 str0" d="M90.78 68.06c-0.12,0.55 -0.24,0.41 -0.24,0.96l0 0.69 1.33 0c2.64,0 7.09,-0.14 5.77,4.93l-0.12 0.41 -3.37 14.25c0,0.13 -0.12,0.41 -0.12,0.54 -0.84,4.39 -1.56,8.09 2.16,11.37l0.49 0.28c5.04,2.46 11.3,-0.14 15.26,-3.56 1.09,-0.96 2.17,-1.78 2.77,-2.2l0.24 -0.13 0 0.68c0.48,6.85 17.31,7.54 18.87,1.1l0 -0.82 -0.6 0 -3.84 0.68 -0.36 0c-1.45,0 -2.65,-1.51 -2.65,-3.15l0 -1.37c0.96,-9.73 3.73,-18.49 5.89,-27.81l-9.62 0c-0.84,0 -5.17,20.14 -6.61,25.89 -2.04,3.56 -5.17,5.76 -9.14,5.76 -0.96,0 -1.32,-0.28 -1.92,-0.83 -0.72,-0.95 -0.84,-1.64 -0.84,-2.87 0.24,-3.97 3.85,-17.13 3.85,-17.67 0.36,-2.2 0.36,-4.25 0.12,-6.17l-0.24 -0.68c-0.24,-1.1 -2.65,-3.29 -3.73,-3.43l-0.96 -0.27 -1.45 -0.14 -0.24 0c-3.36,0 -9.37,1.37 -10.7,3.56z"/>
    <path class="fil1 str0" d="M56.16 44.77l-2.76 0.14c-0.73,0 -0.49,0 -0.73,1.92l0 0.55 1.81 0c2.04,0 3.36,2.74 3.36,4.79 -3,16.3 -6.73,32.74 -9.85,48.91l10.33 0 0.61 -1.1 0.24 -1.23c1.2,-7.26 2.28,-14.93 4.44,-21.92 0.37,-0.82 0.37,-1.51 0.85,-2.47 0.48,-0.68 0.96,-1.23 1.56,-1.91 2.4,-2.74 6.49,-3.7 8.9,-1.24 0.72,0.83 1.08,1.65 1.08,2.88 -0.12,3.56 -1.81,9.86 -2.65,13.43 -0.72,3.83 -1.32,6.02 -1.08,10.13 0.48,1.51 1.32,2.74 2.89,3.29 3,1.1 7.57,0.55 9.37,0.27 1.69,0 5.77,-2.32 5.77,-3.97l0 -0.55c-0.12,0 -0.36,-0.13 -0.48,-0.13l-3.24 0.54 -0.72 0c-5.9,0 -1.93,-11.64 -1.09,-15.2 0.73,-3.15 1.57,-6.58 1.69,-9.59 0,-2.47 -0.12,-4.8 -2.29,-6.44 -5.29,-3.97 -14.3,1.1 -18.99,4.25l-0.24 0.27 4.93 -26.03 -2.53 0 -11.18 0.41z"/>
    <path class="fil2 str0" d="M113.03 48.2c-4.93,1.78 -10.22,4.66 -14.07,8.36 -0.48,0.41 -0.72,1.23 -0.72,1.64 0,0.55 0.36,1.23 0.72,1.23l0.6 0c2.04,-1.37 3.97,-2.87 6.01,-3.97 9.74,-5.89 24.29,-3.43 32.1,5.48 8.42,9.59 5.53,18.63 1.08,28.77 0,0.68 -0.12,0.41 -0.12,0.96 0,0.27 0,0.13 0.12,0.54 0.12,0.28 0.24,0.55 0.6,0.55l0.61 0c0.96,0 6.61,-9.59 6.85,-11.09 4.33,-10.42 3.12,-22.47 -5.65,-29.05 -7.94,-6.44 -19.12,-6.3 -28.13,-3.42z"/>
    <path class="fil2 str0" d="M125.59 27.21c4.4,0 7.97,3.57 7.97,7.97 0,4.41 -3.57,7.98 -7.97,7.98 -4.4,0 -7.97,-3.57 -7.97,-7.98 0,-4.4 3.57,-7.97 7.97,-7.97z"/>
    <path class="fil3" d="M34.2 110.97c3.07,0 5.42,0.55 7.06,1.64 1.63,1.09 2.45,2.79 2.45,5.09 0,1.44 -0.33,2.61 -0.99,3.5 -0.66,0.9 -1.61,1.6 -2.85,2.12 0.41,0.51 0.85,1.09 1.3,1.75 0.45,0.66 0.9,1.35 1.34,2.07 0.45,0.72 0.87,1.47 1.29,2.25 0.41,0.78 0.8,1.54 1.15,2.29l-5.15 0c-0.38,-0.67 -0.76,-1.35 -1.14,-2.04 -0.39,-0.69 -0.79,-1.36 -1.19,-2.01 -0.4,-0.65 -0.81,-1.27 -1.2,-1.85 -0.39,-0.58 -0.79,-1.1 -1.19,-1.58l-2.27 0 0 7.48 -4.61 0 0 -20.18c1,-0.2 2.04,-0.33 3.12,-0.41 1.07,-0.08 2.03,-0.12 2.88,-0.12zm0.26 3.93c-0.33,0 -0.63,0.01 -0.9,0.03 -0.26,0.02 -0.52,0.04 -0.75,0.06l0 5.55 1.3 0c1.73,0 2.97,-0.22 3.72,-0.65 0.75,-0.43 1.12,-1.17 1.12,-2.22 0,-1 -0.38,-1.71 -1.13,-2.14 -0.76,-0.42 -1.88,-0.63 -3.36,-0.63z"/>
    <path id="1" class="fil3" d="M46.13 124.03c0,-1.38 0.21,-2.59 0.64,-3.62 0.42,-1.04 0.98,-1.9 1.67,-2.59 0.68,-0.69 1.48,-1.21 2.37,-1.56 0.9,-0.36 1.82,-0.53 2.77,-0.53 2.2,0 3.94,0.67 5.22,2.02 1.28,1.35 1.92,3.33 1.92,5.95 0,0.26 -0.01,0.54 -0.03,0.84 -0.02,0.31 -0.03,0.58 -0.05,0.82l-9.99 0c0.1,0.9 0.52,1.62 1.27,2.15 0.75,0.53 1.75,0.8 3.01,0.8 0.81,0 1.6,-0.07 2.38,-0.22 0.78,-0.15 1.42,-0.33 1.91,-0.55l0.59 3.58c-0.24,0.11 -0.55,0.23 -0.95,0.35 -0.39,0.12 -0.83,0.22 -1.31,0.31 -0.48,0.09 -1,0.16 -1.55,0.22 -0.55,0.06 -1.11,0.09 -1.66,0.09 -1.39,0 -2.61,-0.21 -3.64,-0.62 -1.04,-0.41 -1.9,-0.98 -2.57,-1.7 -0.68,-0.72 -1.19,-1.57 -1.51,-2.55 -0.33,-0.99 -0.49,-2.05 -0.49,-3.19zm10.34 -1.69c-0.02,-0.37 -0.08,-0.74 -0.19,-1.09 -0.11,-0.36 -0.28,-0.67 -0.5,-0.95 -0.23,-0.27 -0.52,-0.5 -0.86,-0.68 -0.35,-0.17 -0.77,-0.26 -1.29,-0.26 -0.49,0 -0.91,0.08 -1.27,0.25 -0.35,0.17 -0.65,0.39 -0.88,0.66 -0.24,0.28 -0.42,0.6 -0.55,0.96 -0.13,0.37 -0.22,0.74 -0.28,1.11l5.82 0z"/>
    <path id="2" class="fil3" d="M70.32 131.97c-1.28,-0.02 -2.31,-0.16 -3.11,-0.41 -0.8,-0.26 -1.43,-0.62 -1.89,-1.08 -0.47,-0.46 -0.78,-1.02 -0.95,-1.68 -0.17,-0.66 -0.25,-1.41 -0.25,-2.23l0 -17.11 4.4 -0.71 0 16.93c0,0.39 0.03,0.75 0.09,1.06 0.06,0.32 0.17,0.58 0.34,0.8 0.17,0.22 0.41,0.4 0.72,0.53 0.32,0.14 0.74,0.23 1.27,0.27l-0.62 3.63z"/>
    <path id="3" class="fil3" d="M79.84 128.6c0.43,0 0.84,-0.01 1.24,-0.02 0.39,-0.02 0.71,-0.05 0.94,-0.09l0 -3.34c-0.17,-0.04 -0.44,-0.08 -0.8,-0.12 -0.35,-0.04 -0.67,-0.06 -0.97,-0.06 -0.41,0 -0.8,0.03 -1.17,0.08 -0.36,0.04 -0.68,0.14 -0.96,0.28 -0.27,0.13 -0.49,0.32 -0.65,0.56 -0.15,0.23 -0.23,0.53 -0.23,0.88 0,0.69 0.23,1.17 0.69,1.44 0.46,0.26 1.1,0.39 1.91,0.39zm-0.36 -12.87c1.3,0 2.38,0.14 3.25,0.44 0.87,0.29 1.56,0.72 2.08,1.27 0.53,0.55 0.9,1.22 1.11,2.01 0.22,0.79 0.33,1.66 0.33,2.63l0 9.15c-0.63,0.14 -1.51,0.3 -2.63,0.49 -1.12,0.19 -2.48,0.28 -4.08,0.28 -1,0 -1.91,-0.09 -2.73,-0.26 -0.82,-0.18 -1.52,-0.47 -2.11,-0.88 -0.59,-0.4 -1.05,-0.93 -1.36,-1.58 -0.32,-0.65 -0.47,-1.44 -0.47,-2.39 0,-0.9 0.18,-1.67 0.54,-2.3 0.37,-0.63 0.85,-1.14 1.46,-1.51 0.61,-0.37 1.31,-0.64 2.1,-0.81 0.79,-0.17 1.61,-0.25 2.45,-0.25 0.57,0 1.08,0.02 1.52,0.07 0.45,0.05 0.81,0.11 1.08,0.19l0 -0.41c0,-0.75 -0.22,-1.35 -0.68,-1.8 -0.45,-0.46 -1.24,-0.68 -2.36,-0.68 -0.75,0 -1.49,0.05 -2.22,0.16 -0.72,0.11 -1.35,0.26 -1.89,0.46l-0.56 -3.55c0.26,-0.08 0.58,-0.16 0.96,-0.25 0.39,-0.09 0.81,-0.16 1.26,-0.23 0.45,-0.07 0.93,-0.13 1.43,-0.18 0.5,-0.05 1.01,-0.07 1.52,-0.07z"/>
    <path id="4" class="fil3" d="M90.09 112.27l4.4 -0.71 0 4.58 5.29 0 0 3.66 -5.29 0 0 5.47c0,0.92 0.16,1.66 0.49,2.21 0.32,0.55 0.98,0.83 1.96,0.83 0.47,0 0.96,-0.05 1.46,-0.13 0.5,-0.09 0.96,-0.22 1.38,-0.37l0.62 3.42c-0.54,0.22 -1.13,0.41 -1.78,0.57 -0.65,0.15 -1.44,0.23 -2.39,0.23 -1.2,0 -2.19,-0.16 -2.98,-0.49 -0.79,-0.32 -1.42,-0.77 -1.89,-1.35 -0.48,-0.59 -0.81,-1.29 -0.99,-2.12 -0.19,-0.82 -0.28,-1.74 -0.28,-2.74l0 -13.06z"/>
    <path id="5" class="fil3" d="M117.29 123.88c0,1.22 -0.17,2.34 -0.53,3.35 -0.35,1.02 -0.86,1.88 -1.53,2.6 -0.67,0.72 -1.48,1.28 -2.41,1.67 -0.94,0.39 -1.99,0.59 -3.15,0.59 -1.14,0 -2.18,-0.2 -3.11,-0.59 -0.94,-0.39 -1.74,-0.95 -2.41,-1.67 -0.67,-0.72 -1.19,-1.58 -1.57,-2.6 -0.37,-1.01 -0.56,-2.13 -0.56,-3.35 0,-1.22 0.19,-2.34 0.58,-3.34 0.38,-1 0.91,-1.86 1.59,-2.57 0.68,-0.71 1.49,-1.26 2.42,-1.65 0.94,-0.4 1.96,-0.59 3.06,-0.59 1.12,0 2.15,0.19 3.09,0.59 0.93,0.39 1.74,0.94 2.41,1.65 0.67,0.71 1.19,1.57 1.56,2.57 0.38,1 0.56,2.12 0.56,3.34zm-4.49 0c0,-1.36 -0.27,-2.43 -0.81,-3.21 -0.54,-0.77 -1.31,-1.16 -2.32,-1.16 -1,0 -1.78,0.39 -2.33,1.16 -0.55,0.78 -0.83,1.85 -0.83,3.21 0,1.36 0.28,2.44 0.83,3.23 0.55,0.8 1.33,1.2 2.33,1.2 1.01,0 1.78,-0.4 2.32,-1.2 0.54,-0.79 0.81,-1.87 0.81,-3.23zm0.51 -13.32l-4.86 4.1 -2.03 -1.8 4.18 -4.79 2.71 2.49z"/>
    <path id="6" class="fil3" d="M130.05 120.04c-0.39,-0.1 -0.85,-0.2 -1.38,-0.31 -0.54,-0.11 -1.11,-0.16 -1.72,-0.16 -0.27,0 -0.6,0.02 -0.99,0.07 -0.38,0.05 -0.67,0.1 -0.87,0.16l0 11.88 -4.4 0 0 -14.71c0.79,-0.28 1.72,-0.54 2.79,-0.79 1.08,-0.24 2.27,-0.37 3.59,-0.37 0.24,0 0.52,0.02 0.86,0.05 0.33,0.03 0.67,0.07 1,0.12 0.34,0.05 0.67,0.1 1.01,0.17 0.33,0.07 0.62,0.16 0.85,0.25l-0.74 3.64z"/>
    <path id="7" class="fil3" d="M137.56 131.68l-4.4 0 0 -15.54 4.4 0 0 15.54zm0.41 -20.03c0,0.81 -0.26,1.44 -0.78,1.9 -0.52,0.47 -1.14,0.7 -1.85,0.7 -0.71,0 -1.32,-0.23 -1.84,-0.7 -0.53,-0.46 -0.79,-1.09 -0.79,-1.9 0,-0.81 0.26,-1.44 0.79,-1.91 0.52,-0.46 1.13,-0.69 1.84,-0.69 0.71,0 1.33,0.23 1.85,0.69 0.52,0.47 0.78,1.1 0.78,1.91z"/>
    <path id="8" class="fil3" d="M156.23 123.88c0,1.22 -0.18,2.34 -0.53,3.35 -0.36,1.02 -0.87,1.88 -1.54,2.6 -0.67,0.72 -1.47,1.28 -2.41,1.67 -0.93,0.39 -1.98,0.59 -3.14,0.59 -1.15,0 -2.18,-0.2 -3.12,-0.59 -0.94,-0.39 -1.74,-0.95 -2.41,-1.67 -0.67,-0.72 -1.19,-1.58 -1.56,-2.6 -0.38,-1.01 -0.56,-2.13 -0.56,-3.35 0,-1.22 0.19,-2.34 0.57,-3.34 0.39,-1 0.92,-1.86 1.6,-2.57 0.68,-0.71 1.48,-1.26 2.42,-1.65 0.93,-0.4 1.95,-0.59 3.06,-0.59 1.12,0 2.15,0.19 3.08,0.59 0.94,0.39 1.74,0.94 2.41,1.65 0.67,0.71 1.19,1.57 1.57,2.57 0.37,1 0.56,2.12 0.56,3.34zm-4.49 0c0,-1.36 -0.27,-2.43 -0.82,-3.21 -0.54,-0.77 -1.31,-1.16 -2.31,-1.16 -1.01,0 -1.79,0.39 -2.34,1.16 -0.55,0.78 -0.82,1.85 -0.82,3.21 0,1.36 0.27,2.44 0.82,3.23 0.55,0.8 1.33,1.2 2.34,1.2 1,0 1.77,-0.4 2.31,-1.2 0.55,-0.79 0.82,-1.87 0.82,-3.23z"/>
    <path id="9" class="fil3" d="M164.09 128.52c0.8,0 1.37,-0.08 1.71,-0.24 0.33,-0.16 0.5,-0.46 0.5,-0.92 0,-0.35 -0.22,-0.66 -0.65,-0.93 -0.43,-0.26 -1.09,-0.56 -1.98,-0.9 -0.69,-0.25 -1.31,-0.52 -1.87,-0.8 -0.57,-0.27 -1.04,-0.6 -1.44,-0.98 -0.39,-0.39 -0.7,-0.85 -0.91,-1.38 -0.22,-0.53 -0.33,-1.17 -0.33,-1.92 0,-1.46 0.54,-2.61 1.63,-3.45 1.08,-0.85 2.57,-1.27 4.46,-1.27 0.94,0 1.85,0.08 2.72,0.25 0.86,0.16 1.55,0.35 2.06,0.54l-0.76 3.43c-0.52,-0.18 -1.07,-0.34 -1.67,-0.47 -0.6,-0.14 -1.28,-0.21 -2.03,-0.21 -1.38,0 -2.07,0.38 -2.07,1.15 0,0.18 0.03,0.34 0.09,0.47 0.06,0.14 0.18,0.28 0.36,0.4 0.18,0.13 0.42,0.27 0.72,0.42 0.31,0.15 0.7,0.31 1.17,0.49 0.96,0.36 1.76,0.71 2.39,1.06 0.63,0.34 1.13,0.72 1.49,1.12 0.37,0.4 0.62,0.85 0.77,1.34 0.15,0.5 0.22,1.06 0.22,1.71 0,1.53 -0.57,2.7 -1.73,3.48 -1.15,0.79 -2.78,1.18 -4.88,1.18 -1.38,0 -2.53,-0.12 -3.45,-0.35 -0.91,-0.24 -1.55,-0.44 -1.9,-0.59l0.74 -3.58c0.75,0.3 1.51,0.53 2.3,0.69 0.79,0.17 1.57,0.26 2.34,0.26z"/>
   </g>
  </g>
 </g>
</svg>
