<?xml version="1.0" encoding="UTF-8" standalone="no"?>
<!DOCTYPE svg PUBLIC "-//W3C//DTD SVG 20010904//EN"
              "http://www.w3.org/TR/2001/REC-SVG-20010904/DTD/svg10.dtd">

<svg xmlns="http://www.w3.org/2000/svg"
     width="96px" height="96px"
     viewBox="0 0 171 175">
  <path id="Vetor importado"
        fill="none" stroke="black" stroke-width="1"
        d="M 111.41,111.69
           C 111.41,111.69 58.21,58.50 58.21,58.50M 58.21,58.70
           C 58.21,58.70 14.02,58.70 14.02,58.70
             14.02,58.70 14.02,110.69 14.02,110.69
             14.02,110.69 58.21,110.69 58.21,110.69
             58.21,110.69 58.21,154.88 58.21,154.88
             58.21,154.88 110.21,154.88 110.21,154.88
             110.21,154.88 110.21,110.69 110.21,110.69
             110.21,110.69 154.41,110.69 154.41,110.69
             154.41,110.69 154.41,58.70 154.41,58.70
             154.41,58.70 110.21,58.70 110.21,58.70
             110.21,58.70 110.21,14.51 110.21,14.51
             110.21,14.51 58.21,14.51 58.21,14.51
             58.21,14.51 58.21,58.70 58.21,58.70 Z" />
</svg>
